# xmcd
#
# Track frame offsets: 
#        150
#        17764
#        35601
#        54896
#        74723
#        98295
#        123802
#        140646
#        159883
#        182347
#        204764
#        220599
#        233694
#        249456
#        268150
#        288809
#        311871
#
# Disc length: 4293 seconds
#
# Revision: 0
# Processed by: cddbd v1.5.2PL0 Copyright (c) Steve Scherf et al.
# Submitted via: ExactAudioCopy v0.99pb4
#
DISCID=e010c311
DTITLE=Jymmy Vaughan - The Man And His Music
DYEAR=1900
DGENRE=
TTITLE0=Out There
TTITLE1=Boom-Bapa-Boom
TTITLE2=Lost In You
TTITLE3=Good Texan
TTITLE4=The Ironic Twist
TTITLE5=Astral Projection Blues
TTITLE6=Hillbillies From Outerspace
TTITLE7=Love The World
TTITLE8=Tick Tock
TTITLE9=Tilt A Whirl
TTITLE10=Can't Say No
TTITLE11=D/FW
TTITLE12=Kinky Woman
TTITLE13=Just Like Putty
TTITLE14=(Everybody's Got) Sweet Soul Vibe
TTITLE15=Brothers
TTITLE16=Little Son, Big Sun
EXTD=
EXTT0=
EXTT1=
EXTT2=
EXTT3=
EXTT4=
EXTT5=
EXTT6=
EXTT7=
EXTT8=
EXTT9=
EXTT10=
EXTT11=
EXTT12=
EXTT13=
EXTT14=
EXTT15=
EXTT16=
PLAYORDER=
